<!DOCTYPE svg>
<svg xmlns="http://www.w3.org/2000/svg" version="1.1" width="529px" height="511px" fill="#125c86"
     style="shape-rendering:geometricPrecision; text-rendering:geometricPrecision; image-rendering:optimizeQuality; fill-rule:evenodd; clip-rule:evenodd">
<g><path d="M 334.5,81.5 C 334.737,82.791 334.404,83.791 333.5,84.5C 331.792,87.9503 330.459,91.617 329.5,95.5C 327.896,96.287 327.229,97.6203 327.5,99.5C 327.672,100.492 327.338,101.158 326.5,101.5C 325.293,101.378 324.626,102.378 324.5,104.5C 320.274,112.387 315.274,119.72 309.5,126.5C 305.559,129.29 306.226,130.623 311.5,130.5C 314.267,130.858 316.933,131.525 319.5,132.5C 325.5,135.193 328.5,133.193 328.5,126.5C 330.56,123.76 332.226,120.76 333.5,117.5C 333.833,116.5 334.5,115.833 335.5,115.5C 340.428,110.072 346.095,105.572 352.5,102C 358.166,100.324 360.999,102.491 361,108.5C 361.174,113.351 361.674,118.018 362.5,122.5C 363.483,126.298 363.817,130.298 363.5,134.5C 363.5,136.167 363.5,137.833 363.5,139.5C 373.857,139.517 384.19,139.017 394.5,138C 398.767,137.811 402.767,136.977 406.5,135.5C 411.38,134.031 416.38,133.031 421.5,132.5C 434.298,128.845 446.965,124.679 459.5,120C 463.091,119.211 466.591,119.378 470,120.5C 471.998,127.886 471.664,135.22 469,142.5C 466.521,148.125 463.521,153.458 460,158.5C 456.558,161.432 453.725,164.765 451.5,168.5C 451.5,169.167 451.167,169.5 450.5,169.5C 445.039,171.731 440.039,174.731 435.5,178.5C 433.351,179.736 431.018,180.736 428.5,181.5C 417.517,185.323 406.517,188.656 395.5,191.5C 394.391,191.557 393.391,191.89 392.5,192.5C 389.038,191.518 385.371,191.185 381.5,191.5C 381.285,193.179 381.952,194.179 383.5,194.5C 385.196,197.85 386.863,201.183 388.5,204.5C 388.787,206.121 389.787,207.121 391.5,207.5C 394.957,206.906 397.957,205.573 400.5,203.5C 403.152,203.59 405.485,202.924 407.5,201.5C 407.833,201.5 408.167,201.5 408.5,201.5C 416.196,201.354 423.862,201.687 431.5,202.5C 433.403,202.796 435.07,203.463 436.5,204.5C 436.821,205.817 437.154,207.151 437.5,208.5C 436.098,211.537 434.765,214.537 433.5,217.5C 432.5,218.5 431.5,219.5 430.5,220.5C 430.565,220.062 430.399,219.728 430,219.5C 427.735,220.916 426.569,222.916 426.5,225.5C 424.233,228.271 421.733,230.938 419,233.5C 417.441,235.217 416.608,237.217 416.5,239.5C 417.08,241.749 418.413,243.415 420.5,244.5C 422.569,247.573 425.236,249.906 428.5,251.5C 429.833,252.167 430.833,253.167 431.5,254.5C 438.744,261.568 446.744,267.735 455.5,273C 468.729,280.781 482.395,287.781 496.5,294C 501.458,295.938 503.291,299.438 502,304.5C 486.704,319.258 468.537,324.424 447.5,320C 439.543,318.181 431.876,315.681 424.5,312.5C 422.716,312.107 421.05,311.441 419.5,310.5C 417.664,308.412 415.331,307.079 412.5,306.5C 412.027,305.094 411.027,304.427 409.5,304.5C 403.273,301.27 397.607,297.27 392.5,292.5C 390.626,288.835 389.293,288.835 388.5,292.5C 387.33,297.164 386.497,301.83 386,306.5C 392.294,309.963 398.461,313.63 404.5,317.5C 408.836,322.842 413.169,328.175 417.5,333.5C 417.851,335.869 418.018,338.203 418,340.5C 416.348,341.399 414.848,342.399 413.5,343.5C 403.95,345.087 394.283,345.753 384.5,345.5C 383.167,345.5 381.833,345.5 380.5,345.5C 380.177,351.69 380.51,357.69 381.5,363.5C 381.5,365.167 381.5,366.833 381.5,368.5C 381.189,373.766 381.855,378.766 383.5,383.5C 384.729,389.331 385.729,395.331 386.5,401.5C 388.589,409.767 391.256,417.767 394.5,425.5C 396.023,431.572 397.857,437.572 400,443.5C 400.602,446.221 400.435,448.887 399.5,451.5C 384.43,453.784 371.096,449.951 359.5,440C 354.228,435.235 349.561,430.069 345.5,424.5C 341.541,416.916 337.874,409.25 334.5,401.5C 331.083,389.336 328.417,377.003 326.5,364.5C 325.261,364.942 324.261,365.609 323.5,366.5C 320.534,368.988 317.201,370.988 313.5,372.5C 311.448,373.053 311.115,374.053 312.5,375.5C 313.305,377.915 314.305,380.249 315.5,382.5C 314.441,384.726 314.608,387.059 316,389.5C 317.338,399.129 316.338,408.462 313,417.5C 310.455,418.797 307.955,418.631 305.5,417C 301.606,413.596 297.606,410.429 293.5,407.5C 292.415,405.413 290.749,404.08 288.5,403.5C 286.691,400.674 284.191,398.674 281,397.5C 277.547,399.95 274.38,402.783 271.5,406C 271.728,406.399 272.062,406.565 272.5,406.5C 270.167,409.5 267.5,412.167 264.5,414.5C 262.738,415.262 261.738,416.596 261.5,418.5C 260.066,421.047 258.4,423.381 256.5,425.5C 256.565,425.062 256.399,424.728 256,424.5C 254.961,425.244 254.461,426.244 254.5,427.5C 253.89,429.434 252.89,431.101 251.5,432.5C 251.565,432.062 251.399,431.728 251,431.5C 249.961,432.244 249.461,433.244 249.5,434.5C 248.094,434.973 247.427,435.973 247.5,437.5C 246.404,440.032 245.071,442.365 243.5,444.5C 241.076,447.008 239.41,450.008 238.5,453.5C 237.008,457.818 235.008,461.818 232.5,465.5C 229.992,469.182 227.992,473.182 226.5,477.5C 225.121,480.386 223.121,482.886 220.5,485C 218.833,485.667 217.167,485.667 215.5,485C 204.239,474.304 198.572,461.138 198.5,445.5C 198.457,434.829 200.123,424.496 203.5,414.5C 205.293,412.574 206.293,410.241 206.5,407.5C 209.751,401.999 212.751,396.333 215.5,390.5C 216.34,388.147 217.674,386.147 219.5,384.5C 222.209,381.792 224.542,378.792 226.5,375.5C 227.965,374.594 228.965,373.261 229.5,371.5C 228.675,370.614 227.675,370.281 226.5,370.5C 224.095,369.232 221.428,368.565 218.5,368.5C 216.162,366.96 213.495,366.294 210.5,366.5C 210.5,367.5 210.5,368.5 210.5,369.5C 208.707,371.426 207.707,373.759 207.5,376.5C 203.594,384.406 197.928,390.739 190.5,395.5C 188.973,395.427 187.973,396.094 187.5,397.5C 184.692,398.929 181.692,399.595 178.5,399.5C 177.833,399.5 177.5,399.167 177.5,398.5C 177.279,395.933 176.612,393.599 175.5,391.5C 174.669,382.563 174.002,373.563 173.5,364.5C 173.5,363.5 173.5,362.5 173.5,361.5C 166.978,361.177 160.645,361.51 154.5,362.5C 152.5,362.5 150.5,362.5 148.5,362.5C 125.916,364.545 104.25,369.879 83.5,378.5C 79.6086,379.806 75.6086,380.806 71.5,381.5C 69.7927,381.272 68.126,380.938 66.5,380.5C 65.9861,378.383 65.6527,376.216 65.5,374C 66.3316,368.512 66.9983,363.012 67.5,357.5C 71.0593,351.395 74.8927,345.395 79,339.5C 86.4489,332.87 94.2822,326.87 102.5,321.5C 105.481,321.818 107.815,320.818 109.5,318.5C 116.767,316.744 123.767,314.411 130.5,311.5C 138.556,310.429 146.556,309.095 154.5,307.5C 154.376,306.893 154.043,306.56 153.5,306.5C 151.592,303.688 149.925,300.688 148.5,297.5C 148.006,292.603 146.006,291.603 142.5,294.5C 140.287,295.773 137.954,296.773 135.5,297.5C 131.613,297.646 127.946,298.313 124.5,299.5C 116.534,300.133 108.867,298.966 101.5,296C 100.196,295.196 99.5288,294.029 99.5,292.5C 100.137,289.893 101.304,287.56 103,285.5C 108.781,279.564 113.948,273.23 118.5,266.5C 121.139,265.294 121.972,263.294 121,260.5C 109.718,248.032 96.8851,237.699 82.5,229.5C 70.079,220.954 56.7456,213.954 42.5,208.5C 39.3579,206.42 36.3579,204.086 33.5,201.5C 34.0038,197.801 35.6704,194.635 38.5,192C 43.2266,188.309 48.2266,185.142 53.5,182.5C 55.0495,181.559 56.7162,180.893 58.5,180.5C 81.517,178.037 103.184,182.37 123.5,193.5C 125.147,195.326 127.147,196.66 129.5,197.5C 134.506,200.001 139.173,203.001 143.5,206.5C 143.858,208.701 145.192,210.035 147.5,210.5C 148.386,209.675 148.719,208.675 148.5,207.5C 148.621,203.544 149.621,199.878 151.5,196.5C 150.96,195.252 150.293,194.085 149.5,193C 145.598,191.435 141.931,189.602 138.5,187.5C 138.027,186.094 137.027,185.427 135.5,185.5C 134.089,183.086 132.089,181.419 129.5,180.5C 128.833,180.5 128.5,180.167 128.5,179.5C 125.192,176.225 122.358,172.558 120,168.5C 116.169,164.183 116.669,160.683 121.5,158C 127.303,157.109 132.97,156.275 138.5,155.5C 143.13,154.771 147.797,154.437 152.5,154.5C 153.833,154.5 155.167,154.5 156.5,154.5C 156.971,141.078 156.138,127.744 154,114.5C 153.722,113.584 153.222,112.918 152.5,112.5C 151.908,109.873 151.575,107.206 151.5,104.5C 147.992,88.1394 143.159,72.1394 137,56.5C 136.056,53.6529 136.556,51.1529 138.5,49C 152.738,47.3914 165.405,51.058 176.5,60C 182.437,65.43 187.77,71.2633 192.5,77.5C 194.632,83.0978 197.299,88.4311 200.5,93.5C 200.345,96.716 201.345,99.3826 203.5,101.5C 203.5,101.833 203.5,102.167 203.5,102.5C 205.725,113.514 208.058,124.514 210.5,135.5C 211.107,135.376 211.44,135.043 211.5,134.5C 213.181,132.992 215.181,131.992 217.5,131.5C 220.66,130.417 223.327,128.584 225.5,126C 221.096,115.276 219.429,104.11 220.5,92.5C 221.41,88.7774 222.743,85.1107 224.5,81.5C 227.817,81.6643 230.817,82.6643 233.5,84.5C 237.867,88.8678 242.533,92.8678 247.5,96.5C 248.539,98.5311 250.205,99.8645 252.5,100.5C 254.167,104.5 255.833,104.5 257.5,100.5C 270.601,88.8892 281.768,75.5559 291,60.5C 292.122,58.5932 292.955,56.5932 293.5,54.5C 297.216,49.4098 300.216,43.7431 302.5,37.5C 302.328,36.5084 302.662,35.8417 303.5,35.5C 306.454,28.2666 310.454,21.5999 315.5,15.5C 317.575,14.2385 319.575,14.4052 321.5,16C 335.556,29.1679 341.056,45.3345 338,64.5C 337.617,70.3604 336.45,76.0271 334.5,81.5 Z M 290.5,179.5 C 300.534,184.518 311.201,188.018 322.5,190C 325.023,191.563 326.69,193.73 327.5,196.5C 328.417,204.593 331.083,211.926 335.5,218.5C 338.292,227.423 342.626,235.423 348.5,242.5C 348.877,244.258 349.544,245.925 350.5,247.5C 349.212,249.739 348.212,252.072 347.5,254.5C 346.326,255.514 345.66,256.847 345.5,258.5C 341.488,264.2 338.821,270.533 337.5,277.5C 337.5,277.833 337.5,278.167 337.5,278.5C 333.489,285.515 331.156,293.182 330.5,301.5C 330.167,302.167 329.833,302.833 329.5,303.5C 329.489,305.017 328.823,306.184 327.5,307C 323.939,308.232 320.606,309.732 317.5,311.5C 310.575,313.585 303.909,316.251 297.5,319.5C 295.033,319.755 293.033,320.755 291.5,322.5C 289.033,322.755 287.033,323.755 285.5,325.5C 282.06,327.055 278.727,328.888 275.5,331C 273.564,331.813 271.564,332.313 269.5,332.5C 268.101,331.11 266.434,330.11 264.5,329.5C 258.034,325.163 251.034,321.663 243.5,319C 238.017,316.783 232.351,315.283 226.5,314.5C 223.888,313.629 221.221,312.963 218.5,312.5C 216.78,311.136 214.78,310.136 212.5,309.5C 211.675,307.64 210.675,305.974 209.5,304.5C 209.541,299.956 208.208,295.956 205.5,292.5C 205.204,290.597 204.537,288.93 203.5,287.5C 203.293,284.759 202.293,282.426 200.5,280.5C 199.54,275.914 197.54,271.914 194.5,268.5C 192.582,263.657 189.916,259.323 186.5,255.5C 186.56,252.659 187.226,249.993 188.5,247.5C 191.265,243.545 193.265,239.212 194.5,234.5C 198.531,227.749 201.197,220.415 202.5,212.5C 204.401,205.247 207.068,198.247 210.5,191.5C 220.452,190.44 229.452,187.107 237.5,181.5C 241.582,180.624 245.249,178.957 248.5,176.5C 251.331,175.921 253.664,174.588 255.5,172.5C 258.596,171.453 261.596,170.12 264.5,168.5C 272.842,172.947 281.509,176.614 290.5,179.5 Z"/></g>
<g><path d="M 334.5,81.5 C 336.45,76.0271 337.617,70.3604 338,64.5C 341.056,45.3345 335.556,29.1679 321.5,16C 319.575,14.4052 317.575,14.2385 315.5,15.5C 310.454,21.5999 306.454,28.2666 303.5,35.5C 305.153,29.1882 307.653,23.1882 311,17.5C 312.739,15.2589 314.906,13.5922 317.5,12.5C 323.236,14.6219 327.736,18.2886 331,23.5C 340.796,39.3977 343.13,56.3977 338,74.5C 337.478,77.2813 336.311,79.6146 334.5,81.5 Z"/></g>
<g><path d="M 302.5,37.5 C 300.216,43.7431 297.216,49.4098 293.5,54.5C 295.439,49.0253 297.772,43.692 300.5,38.5C 300.957,37.7025 301.624,37.3691 302.5,37.5 Z"/></g>
<g><path d="M 192.5,77.5 C 187.77,71.2633 182.437,65.43 176.5,60C 165.405,51.058 152.738,47.3914 138.5,49C 136.556,51.1529 136.056,53.6529 137,56.5C 143.159,72.1394 147.992,88.1394 151.5,104.5C 146.521,88.3998 141.021,72.3998 135,56.5C 134.041,52.5786 135.208,49.4119 138.5,47C 162.826,45.9957 180.826,56.1624 192.5,77.5 Z"/></g>
<g><path d="M 224.5,81.5 C 228.238,79.8593 231.238,80.8593 233.5,84.5C 230.817,82.6643 227.817,81.6643 224.5,81.5 Z"/></g>
<g><path d="M 224.5,81.5 C 222.743,85.1107 221.41,88.7774 220.5,92.5C 220.337,90.1432 220.503,87.8098 221,85.5C 221.498,83.4556 222.665,82.1223 224.5,81.5 Z"/></g>
<g><path d="M 233.5,84.5 C 239.055,87.383 243.722,91.383 247.5,96.5C 242.533,92.8678 237.867,88.8678 233.5,84.5 Z"/></g>
<g><path d="M 293.5,54.5 C 292.955,56.5932 292.122,58.5932 291,60.5C 281.768,75.5559 270.601,88.8892 257.5,100.5C 262.091,94.4043 267.258,88.7377 273,83.5C 280.085,73.9306 286.918,64.264 293.5,54.5 Z"/></g>
<g><path d="M 333.5,84.5 C 333.333,88.6734 332,92.3401 329.5,95.5C 330.459,91.617 331.792,87.9503 333.5,84.5 Z"/></g>
<g><path d="M 192.5,77.5 C 196.223,82.2788 198.889,87.6121 200.5,93.5C 197.299,88.4311 194.632,83.0978 192.5,77.5 Z"/></g>
<g><path d="M 200.5,93.5 C 201.871,95.936 202.871,98.6027 203.5,101.5C 201.345,99.3826 200.345,96.716 200.5,93.5 Z"/></g>
<g><path d="M 247.5,96.5 C 249.749,97.0798 251.415,98.4131 252.5,100.5C 250.205,99.8645 248.539,98.5311 247.5,96.5 Z"/></g>
<g><path d="M 329.5,95.5 C 329.34,97.153 328.674,98.4863 327.5,99.5C 327.229,97.6203 327.896,96.287 329.5,95.5 Z"/></g>
<g><path d="M 252.5,100.5 C 254.167,100.5 255.833,100.5 257.5,100.5C 255.833,104.5 254.167,104.5 252.5,100.5 Z"/></g>
<g><path d="M 220.5,92.5 C 219.429,104.11 221.096,115.276 225.5,126C 223.327,128.584 220.66,130.417 217.5,131.5C 219.727,129.551 221.727,127.384 223.5,125C 219.652,114.285 218.652,103.452 220.5,92.5 Z"/></g>
<g><path d="M 326.5,101.5 C 326.573,103.027 325.906,104.027 324.5,104.5C 324.626,102.378 325.293,101.378 326.5,101.5 Z"/></g>
<g><path d="M 362.5,122.5 C 361.674,118.018 361.174,113.351 361,108.5C 360.999,102.491 358.166,100.324 352.5,102C 346.095,105.572 340.428,110.072 335.5,115.5C 339.238,109.095 344.571,104.261 351.5,101C 357.264,98.947 360.764,100.78 362,106.5C 362.499,111.823 362.666,117.156 362.5,122.5 Z"/></g>
<g><path d="M 152.5,112.5 C 153.222,112.918 153.722,113.584 154,114.5C 156.138,127.744 156.971,141.078 156.5,154.5C 155.167,154.5 153.833,154.5 152.5,154.5C 153.209,153.596 154.209,153.263 155.5,153.5C 155.548,139.747 154.548,126.081 152.5,112.5 Z"/></g>
<g><path d="M 451.5,168.5 C 453.725,164.765 456.558,161.432 460,158.5C 463.521,153.458 466.521,148.125 469,142.5C 471.664,135.22 471.998,127.886 470,120.5C 466.591,119.378 463.091,119.211 459.5,120C 446.965,124.679 434.298,128.845 421.5,132.5C 435.947,126.628 450.78,121.628 466,117.5C 468.316,117.934 470.316,118.934 472,120.5C 474.217,140.396 467.384,156.396 451.5,168.5 Z"/></g>
<g><path d="M 333.5,117.5 C 332.226,120.76 330.56,123.76 328.5,126.5C 328.884,122.728 330.55,119.728 333.5,117.5 Z"/></g>
<g><path d="M 203.5,102.5 C 204.74,105.024 205.907,107.691 207,110.5C 208.374,118.663 209.874,126.663 211.5,134.5C 211.44,135.043 211.107,135.376 210.5,135.5C 208.058,124.514 205.725,113.514 203.5,102.5 Z"/></g>
<g><path d="M 309.5,126.5 C 309.527,128.199 310.194,129.533 311.5,130.5C 306.226,130.623 305.559,129.29 309.5,126.5 Z"/></g>
<g><path d="M 328.5,126.5 C 328.5,133.193 325.5,135.193 319.5,132.5C 321.604,132.799 323.604,132.466 325.5,131.5C 326.275,129.604 327.275,127.937 328.5,126.5 Z"/></g>
<g><path d="M 363.5,134.5 C 364.186,135.848 365.186,137.015 366.5,138C 379.892,138.214 393.226,137.38 406.5,135.5C 402.767,136.977 398.767,137.811 394.5,138C 384.19,139.017 373.857,139.517 363.5,139.5C 363.5,137.833 363.5,136.167 363.5,134.5 Z"/></g>
<g><path d="M 138.5,155.5 C 132.97,156.275 127.303,157.109 121.5,158C 116.669,160.683 116.169,164.183 120,168.5C 122.358,172.558 125.192,176.225 128.5,179.5C 124.221,177.316 121.054,173.982 119,169.5C 117.086,166.702 116.086,163.702 116,160.5C 117.167,159.333 118.333,158.167 119.5,157C 125.769,155.743 132.102,155.243 138.5,155.5 Z"/></g>
<g><path d="M 290.5,179.5 C 281.509,176.614 272.842,172.947 264.5,168.5C 261.596,170.12 258.596,171.453 255.5,172.5C 258.365,170.144 261.532,168.144 265,166.5C 273.53,171.014 282.03,175.347 290.5,179.5 Z"/></g>
<g><path d="M 450.5,169.5 C 446.005,173.251 441.005,176.251 435.5,178.5C 440.039,174.731 445.039,171.731 450.5,169.5 Z"/></g>
<g><path d="M 255.5,172.5 C 253.664,174.588 251.331,175.921 248.5,176.5C 250.336,174.412 252.669,173.079 255.5,172.5 Z"/></g>
<g><path d="M 123.5,193.5 C 103.184,182.37 81.517,178.037 58.5,180.5C 68.2154,177.262 78.2154,176.762 88.5,179C 96.5964,181.358 104.596,184.025 112.5,187C 116.56,188.689 120.227,190.856 123.5,193.5 Z"/></g>
<g><path d="M 129.5,180.5 C 132.089,181.419 134.089,183.086 135.5,185.5C 132.911,184.581 130.911,182.914 129.5,180.5 Z"/></g>
<g><path d="M 135.5,185.5 C 137.027,185.427 138.027,186.094 138.5,187.5C 136.973,187.573 135.973,186.906 135.5,185.5 Z"/></g>
<g><path d="M 290.5,179.5 C 301.775,183.737 313.442,186.904 325.5,189C 327.113,191.228 327.78,193.728 327.5,196.5C 326.69,193.73 325.023,191.563 322.5,190C 311.201,188.018 300.534,184.518 290.5,179.5 Z"/></g>
<g><path d="M 428.5,181.5 C 425.28,183.979 421.613,185.812 417.5,187C 410.35,189.44 403.017,190.94 395.5,191.5C 406.517,188.656 417.517,185.323 428.5,181.5 Z"/></g>
<g><path d="M 237.5,181.5 C 229.452,187.107 220.452,190.44 210.5,191.5C 219.532,188.494 228.532,185.161 237.5,181.5 Z"/></g>
<g><path d="M 53.5,182.5 C 48.2266,185.142 43.2266,188.309 38.5,192C 35.6704,194.635 34.0038,197.801 33.5,201.5C 32.3871,200.054 32.2204,198.387 33,196.5C 38.2145,189.475 45.0479,184.808 53.5,182.5 Z"/></g>
<g><path d="M 392.5,192.5 C 389.145,192.091 386.145,192.758 383.5,194.5C 381.952,194.179 381.285,193.179 381.5,191.5C 385.371,191.185 389.038,191.518 392.5,192.5 Z"/></g>
<g><path d="M 123.5,193.5 C 126.198,193.845 128.198,195.178 129.5,197.5C 127.147,196.66 125.147,195.326 123.5,193.5 Z"/></g>
<g><path d="M 408.5,201.5 C 411.482,200.835 414.648,200.502 418,200.5C 422.772,200.308 427.272,200.975 431.5,202.5C 423.862,201.687 416.196,201.354 408.5,201.5 Z"/></g>
<g><path d="M 407.5,201.5 C 405.485,202.924 403.152,203.59 400.5,203.5C 402.515,202.076 404.848,201.41 407.5,201.5 Z"/></g>
<g><path d="M 210.5,191.5 C 207.068,198.247 204.401,205.247 202.5,212.5C 203.687,205.754 205.187,199.088 207,192.5C 208.011,191.663 209.178,191.33 210.5,191.5 Z"/></g>
<g><path d="M 33.5,201.5 C 36.3579,204.086 39.3579,206.42 42.5,208.5C 38.025,208.021 35.025,205.688 33.5,201.5 Z"/></g>
<g><path d="M 400.5,203.5 C 397.957,205.573 394.957,206.906 391.5,207.5C 389.787,207.121 388.787,206.121 388.5,204.5C 389.742,205.043 391.075,205.377 392.5,205.5C 395.178,204.825 397.844,204.158 400.5,203.5 Z"/></g>
<g><path d="M 143.5,206.5 C 144.935,208.401 146.602,208.734 148.5,207.5C 148.719,208.675 148.386,209.675 147.5,210.5C 145.192,210.035 143.858,208.701 143.5,206.5 Z"/></g>
<g><path d="M 327.5,196.5 C 330.725,203.496 333.391,210.829 335.5,218.5C 331.083,211.926 328.417,204.593 327.5,196.5 Z"/></g>
<g><path d="M 436.5,204.5 C 439.664,209.622 438.664,213.955 433.5,217.5C 434.765,214.537 436.098,211.537 437.5,208.5C 437.154,207.151 436.821,205.817 436.5,204.5 Z"/></g>
<g><path d="M 42.5,208.5 C 56.7456,213.954 70.079,220.954 82.5,229.5C 68.8119,222.991 55.4785,215.991 42.5,208.5 Z"/></g>
<g><path d="M 202.5,212.5 C 201.197,220.415 198.531,227.749 194.5,234.5C 196.64,226.904 199.307,219.57 202.5,212.5 Z"/></g>
<g><path d="M 430.5,220.5 C 429.136,222.191 427.803,223.858 426.5,225.5C 426.569,222.916 427.735,220.916 430,219.5C 430.399,219.728 430.565,220.062 430.5,220.5 Z"/></g>
<g><path d="M 335.5,218.5 C 340.324,226.141 344.657,234.141 348.5,242.5C 342.626,235.423 338.292,227.423 335.5,218.5 Z"/></g>
<g><path d="M 82.5,229.5 C 96.8851,237.699 109.718,248.032 121,260.5C 121.972,263.294 121.139,265.294 118.5,266.5C 118.511,264.983 119.177,263.816 120.5,263C 115.167,256.333 109.167,250.333 102.5,245C 95.3617,240.352 88.6951,235.185 82.5,229.5 Z"/></g>
<g><path d="M 416.5,239.5 C 418.587,240.585 419.92,242.251 420.5,244.5C 418.413,243.415 417.08,241.749 416.5,239.5 Z"/></g>
<g><path d="M 348.5,242.5 C 350.054,243.914 351.388,245.581 352.5,247.5C 351.057,250.077 349.39,252.41 347.5,254.5C 348.212,252.072 349.212,249.739 350.5,247.5C 349.544,245.925 348.877,244.258 348.5,242.5 Z"/></g>
<g><path d="M 420.5,244.5 C 423.764,246.094 426.431,248.427 428.5,251.5C 425.236,249.906 422.569,247.573 420.5,244.5 Z"/></g>
<g><path d="M 188.5,247.5 C 187.226,249.993 186.56,252.659 186.5,255.5C 185.733,254.828 185.066,253.995 184.5,253C 185.397,250.689 186.73,248.856 188.5,247.5 Z"/></g>
<g><path d="M 345.5,258.5 C 343.207,265.061 340.541,271.394 337.5,277.5C 338.821,270.533 341.488,264.2 345.5,258.5 Z"/></g>
<g><path d="M 194.5,268.5 C 197.54,271.914 199.54,275.914 200.5,280.5C 197.992,276.818 195.992,272.818 194.5,268.5 Z"/></g>
<g><path d="M 118.5,266.5 C 113.948,273.23 108.781,279.564 103,285.5C 101.304,287.56 100.137,289.893 99.5,292.5C 99.5288,294.029 100.196,295.196 101.5,296C 108.867,298.966 116.534,300.133 124.5,299.5C 125.492,299.328 126.158,299.662 126.5,300.5C 117.56,301.632 108.893,300.466 100.5,297C 99.2567,295.846 98.2567,294.512 97.5,293C 98.144,290.26 99.3107,287.76 101,285.5C 106.699,278.97 112.533,272.637 118.5,266.5 Z"/></g>
<g><path d="M 200.5,280.5 C 202.293,282.426 203.293,284.759 203.5,287.5C 201.182,285.815 200.182,283.481 200.5,280.5 Z"/></g>
<g><path d="M 431.5,254.5 C 443.789,263.931 456.789,272.431 470.5,280C 481.972,284.319 492.806,289.819 503,296.5C 505,299.5 505,302.5 503,305.5C 488.537,320.166 471.037,325.666 450.5,322C 444.042,320.802 437.709,319.136 431.5,317C 428.761,315.974 426.428,314.474 424.5,312.5C 431.876,315.681 439.543,318.181 447.5,320C 468.537,324.424 486.704,319.258 502,304.5C 503.291,299.438 501.458,295.938 496.5,294C 482.395,287.781 468.729,280.781 455.5,273C 446.744,267.735 438.744,261.568 431.5,254.5 Z"/></g>
<g><path d="M 392.5,292.5 C 391.036,291.595 389.702,291.595 388.5,292.5C 389.293,288.835 390.626,288.835 392.5,292.5 Z"/></g>
<g><path d="M 148.5,297.5 C 147.077,295.455 145.077,294.455 142.5,294.5C 146.006,291.603 148.006,292.603 148.5,297.5 Z"/></g>
<g><path d="M 337.5,278.5 C 335.729,286.469 333.396,294.136 330.5,301.5C 331.156,293.182 333.489,285.515 337.5,278.5 Z"/></g>
<g><path d="M 135.5,297.5 C 132.702,298.869 129.702,299.869 126.5,300.5C 126.158,299.662 125.492,299.328 124.5,299.5C 127.946,298.313 131.613,297.646 135.5,297.5 Z"/></g>
<g><path d="M 205.5,292.5 C 208.208,295.956 209.541,299.956 209.5,304.5C 207.977,300.597 206.643,296.597 205.5,292.5 Z"/></g>
<g><path d="M 409.5,304.5 C 411.027,304.427 412.027,305.094 412.5,306.5C 410.973,306.573 409.973,305.906 409.5,304.5 Z"/></g>
<g><path d="M 412.5,306.5 C 415.331,307.079 417.664,308.412 419.5,310.5C 416.669,309.921 414.336,308.588 412.5,306.5 Z"/></g>
<g><path d="M 153.5,306.5 C 154.043,306.56 154.376,306.893 154.5,307.5C 146.556,309.095 138.556,310.429 130.5,311.5C 130.5,311.167 130.5,310.833 130.5,310.5C 138.213,309.246 145.88,307.912 153.5,306.5 Z"/></g>
<g><path d="M 329.5,303.5 C 330.451,304.919 330.784,306.585 330.5,308.5C 326.108,309.348 321.775,310.348 317.5,311.5C 320.606,309.732 323.939,308.232 327.5,307C 328.823,306.184 329.489,305.017 329.5,303.5 Z"/></g>
<g><path d="M 209.5,304.5 C 210.675,305.974 211.675,307.64 212.5,309.5C 214.78,310.136 216.78,311.136 218.5,312.5C 212.093,313.695 209.093,311.029 209.5,304.5 Z"/></g>
<g><path d="M 130.5,310.5 C 130.5,310.833 130.5,311.167 130.5,311.5C 123.767,314.411 116.767,316.744 109.5,318.5C 116.273,315.461 123.273,312.794 130.5,310.5 Z"/></g>
<g><path d="M 404.5,317.5 C 410.269,321.725 414.602,327.058 417.5,333.5C 413.169,328.175 408.836,322.842 404.5,317.5 Z"/></g>
<g><path d="M 109.5,318.5 C 107.815,320.818 105.481,321.818 102.5,321.5C 104.426,319.707 106.759,318.707 109.5,318.5 Z"/></g>
<g><path d="M 297.5,319.5 C 295.967,321.245 293.967,322.245 291.5,322.5C 293.033,320.755 295.033,319.755 297.5,319.5 Z"/></g>
<g><path d="M 226.5,314.5 C 232.351,315.283 238.017,316.783 243.5,319C 251.034,321.663 258.034,325.163 264.5,329.5C 251.905,324.084 239.238,319.084 226.5,314.5 Z"/></g>
<g><path d="M 291.5,322.5 C 289.967,324.245 287.967,325.245 285.5,325.5C 287.033,323.755 289.033,322.755 291.5,322.5 Z"/></g>
<g><path d="M 285.5,325.5 C 281.483,328.832 277.15,331.832 272.5,334.5C 271.261,334.058 270.261,333.391 269.5,332.5C 271.564,332.313 273.564,331.813 275.5,331C 278.727,328.888 282.06,327.055 285.5,325.5 Z"/></g>
<g><path d="M 417.5,333.5 C 419.385,335.795 419.885,338.462 419,341.5C 417.556,343.155 415.722,343.822 413.5,343.5C 414.848,342.399 416.348,341.399 418,340.5C 418.018,338.203 417.851,335.869 417.5,333.5 Z"/></g>
<g><path d="M 102.5,321.5 C 94.2822,326.87 86.4489,332.87 79,339.5C 74.8927,345.395 71.0593,351.395 67.5,357.5C 73.7079,340.291 85.3746,328.291 102.5,321.5 Z"/></g>
<g><path d="M 384.5,345.5 C 383.531,346.309 382.698,347.309 382,348.5C 381.501,353.489 381.334,358.489 381.5,363.5C 380.51,357.69 380.177,351.69 380.5,345.5C 381.833,345.5 383.167,345.5 384.5,345.5 Z"/></g>
<g><path d="M 154.5,362.5 C 160.645,361.51 166.978,361.177 173.5,361.5C 173.5,362.5 173.5,363.5 173.5,364.5C 172.711,364.217 172.044,363.717 171.5,363C 165.843,362.501 160.176,362.334 154.5,362.5 Z"/></g>
<g><path d="M 218.5,368.5 C 215.721,368.279 213.054,368.612 210.5,369.5C 210.5,368.5 210.5,367.5 210.5,366.5C 213.495,366.294 216.162,366.96 218.5,368.5 Z"/></g>
<g><path d="M 67.5,357.5 C 66.9983,363.012 66.3316,368.512 65.5,374C 65.6527,376.216 65.9861,378.383 66.5,380.5C 64.0412,379.126 63.0412,376.96 63.5,374C 64.5162,368.315 65.8496,362.815 67.5,357.5 Z"/></g>
<g><path d="M 218.5,368.5 C 221.428,368.565 224.095,369.232 226.5,370.5C 223.505,370.706 220.838,370.04 218.5,368.5 Z"/></g>
<g><path d="M 226.5,370.5 C 227.675,370.281 228.675,370.614 229.5,371.5C 228.965,373.261 227.965,374.594 226.5,375.5C 227.562,373.766 227.562,372.099 226.5,370.5 Z"/></g>
<g><path d="M 148.5,362.5 C 139.739,364.831 130.739,366.664 121.5,368C 108.727,371.203 96.0606,374.703 83.5,378.5C 104.25,369.879 125.916,364.545 148.5,362.5 Z"/></g>
<g><path d="M 210.5,369.5 C 210.293,372.241 209.293,374.574 207.5,376.5C 207.707,373.759 208.707,371.426 210.5,369.5 Z"/></g>
<g><path d="M 313.5,372.5 C 312.89,373.391 312.557,374.391 312.5,375.5C 311.115,374.053 311.448,373.053 313.5,372.5 Z"/></g>
<g><path d="M 381.5,368.5 C 382.725,373.29 383.392,378.29 383.5,383.5C 381.855,378.766 381.189,373.766 381.5,368.5 Z"/></g>
<g><path d="M 334.5,401.5 C 332.144,398.285 330.644,394.619 330,390.5C 328.341,382.564 327.175,374.564 326.5,366.5C 325.5,366.5 324.5,366.5 323.5,366.5C 324.261,365.609 325.261,364.942 326.5,364.5C 328.417,377.003 331.083,389.336 334.5,401.5 Z"/></g>
<g><path d="M 83.5,378.5 C 79.9601,381.41 75.7934,383.076 71,383.5C 68.8155,383.302 67.3155,382.302 66.5,380.5C 68.126,380.938 69.7927,381.272 71.5,381.5C 75.6086,380.806 79.6086,379.806 83.5,378.5 Z"/></g>
<g><path d="M 226.5,375.5 C 224.542,378.792 222.209,381.792 219.5,384.5C 220.694,380.637 223.027,377.637 226.5,375.5 Z"/></g>
<g><path d="M 175.5,391.5 C 176.612,393.599 177.279,395.933 177.5,398.5C 175.837,396.562 175.171,394.228 175.5,391.5 Z"/></g>
<g><path d="M 215.5,390.5 C 212.751,396.333 209.751,401.999 206.5,407.5C 208.21,401.076 211.21,395.409 215.5,390.5 Z"/></g>
<g><path d="M 190.5,395.5 C 190.027,396.906 189.027,397.573 187.5,397.5C 187.973,396.094 188.973,395.427 190.5,395.5 Z"/></g>
<g><path d="M 315.5,382.5 C 319.529,394.671 319.029,406.671 314,418.5C 313.261,419.574 312.261,420.241 311,420.5C 303.636,418.312 297.803,413.979 293.5,407.5C 297.606,410.429 301.606,413.596 305.5,417C 307.955,418.631 310.455,418.797 313,417.5C 316.338,408.462 317.338,399.129 316,389.5C 314.608,387.059 314.441,384.726 315.5,382.5 Z"/></g>
<g><path d="M 187.5,397.5 C 184.944,400.424 181.944,401.09 178.5,399.5C 181.692,399.595 184.692,398.929 187.5,397.5 Z"/></g>
<g><path d="M 288.5,403.5 C 286.201,402.222 283.868,400.889 281.5,399.5C 278.195,401.475 275.195,403.809 272.5,406.5C 272.062,406.565 271.728,406.399 271.5,406C 274.38,402.783 277.547,399.95 281,397.5C 284.191,398.674 286.691,400.674 288.5,403.5 Z"/></g>
<g><path d="M 288.5,403.5 C 290.749,404.08 292.415,405.413 293.5,407.5C 291.251,406.92 289.585,405.587 288.5,403.5 Z"/></g>
<g><path d="M 386.5,401.5 C 390.14,409.085 392.806,417.085 394.5,425.5C 391.256,417.767 388.589,409.767 386.5,401.5 Z"/></g>
<g><path d="M 206.5,407.5 C 206.293,410.241 205.293,412.574 203.5,414.5C 203.167,414.5 202.833,414.5 202.5,414.5C 203.584,411.996 204.917,409.663 206.5,407.5 Z"/></g>
<g><path d="M 264.5,414.5 C 264.262,416.404 263.262,417.738 261.5,418.5C 261.738,416.596 262.738,415.262 264.5,414.5 Z"/></g>
<g><path d="M 334.5,401.5 C 337.874,409.25 341.541,416.916 345.5,424.5C 340.004,417.837 336.337,410.17 334.5,401.5 Z"/></g>
<g><path d="M 256.5,425.5 C 256.167,426.5 255.5,427.167 254.5,427.5C 254.461,426.244 254.961,425.244 256,424.5C 256.399,424.728 256.565,425.062 256.5,425.5 Z"/></g>
<g><path d="M 251.5,432.5 C 251.167,433.5 250.5,434.167 249.5,434.5C 249.461,433.244 249.961,432.244 251,431.5C 251.399,431.728 251.565,432.062 251.5,432.5 Z"/></g>
<g><path d="M 249.5,434.5 C 249.573,436.027 248.906,437.027 247.5,437.5C 247.427,435.973 248.094,434.973 249.5,434.5 Z"/></g>
<g><path d="M 394.5,425.5 C 397.81,432.097 400.144,439.097 401.5,446.5C 401.444,448.64 400.777,450.306 399.5,451.5C 400.435,448.887 400.602,446.221 400,443.5C 397.857,437.572 396.023,431.572 394.5,425.5 Z"/></g>
<g><path d="M 243.5,444.5 C 242.59,447.992 240.924,450.992 238.5,453.5C 239.41,450.008 241.076,447.008 243.5,444.5 Z"/></g>
<g><path d="M 345.5,424.5 C 349.561,430.069 354.228,435.235 359.5,440C 371.096,449.951 384.43,453.784 399.5,451.5C 397.393,453.652 394.726,454.652 391.5,454.5C 370.74,452.475 355.407,442.475 345.5,424.5 Z"/></g>
<g><path d="M 202.5,414.5 C 202.833,414.5 203.167,414.5 203.5,414.5C 200.123,424.496 198.457,434.829 198.5,445.5C 198.572,461.138 204.239,474.304 215.5,485C 217.167,485.667 218.833,485.667 220.5,485C 223.121,482.886 225.121,480.386 226.5,477.5C 223.721,488.149 218.221,489.815 210,482.5C 200.962,471.725 196.462,459.225 196.5,445C 197.16,434.531 199.16,424.364 202.5,414.5 Z"/></g>
<g><path d="M 232.5,465.5 C 231.817,470.252 229.817,474.252 226.5,477.5C 227.992,473.182 229.992,469.182 232.5,465.5 Z"/></g>
</svg>
