<?xml version="1.0" encoding="utf-8"?>
<svg width="128" height="128" viewBox="0 0 70 70" fill="none" xmlns="http://www.w3.org/2000/svg">
<!--    <defs>-->
<!--        <filter color-interpolation-filters="sRGB" x="-38" y="-34" width="40" height="36" id="filter_1">-->
<!--            <feFlood flood-opacity="0" result="BackgroundImageFix_1" />-->
<!--            <feColorMatrix type="matrix" values="0 0 0 0 0 0 0 0 0 0 0 0 0 0 0 0 0 0 1 0" in="SourceAlpha" />-->
<!--            <feOffset dx="-3" dy="2" />-->
<!--            <feGaussianBlur stdDeviation="2.5" />-->
<!--            <feColorMatrix type="matrix" values="0 0 0 0 1 0 0 0 0 1 0 0 0 0 1 0 0 0 0.251 0" />-->
<!--            <feBlend mode="normal" in2="BackgroundImageFix_1" result="Shadow_2" />-->
<!--            <feBlend mode="normal" in="SourceGraphic" in2="Shadow_2" result="Shape_3" />-->
<!--        </filter>-->
<!--    </defs>-->
    <g>
        <path d="M60 0C65.5236 0 70 4.4764 70 10L70 60C70 65.5236 65.5236 70 60 70L10 70C4.4764 70 0 65.5236 0 60L0 10C0 4.4764 4.4764 0 10 0L60 0Z" fill="#FFFFFF" />
        <path d="M23.9886 6.97723L38.1777 35.3553Q38.2331 35.4662 38.2814 35.5805Q38.3297 35.6947 38.3707 35.8118Q38.4116 35.9288 38.4451 36.0483Q38.4785 36.1677 38.5043 36.289Q38.5301 36.4104 38.5481 36.5331Q38.5661 36.6558 38.5763 36.7794Q38.5864 36.903 38.5888 37.027Q38.5911 37.151 38.5855 37.2749Q38.5799 37.3988 38.5665 37.5221Q38.553 37.6454 38.5318 37.7676Q38.5106 37.8898 38.4816 38.0104Q38.4526 38.131 38.4161 38.2495Q38.3795 38.368 38.3355 38.484Q38.2915 38.6 38.2402 38.7129Q38.1889 38.8258 38.1305 38.9352Q38.0721 39.0447 38.0069 39.1502Q37.9417 39.2557 37.8699 39.3568Q37.7981 39.458 37.7201 39.5544Q37.642 39.6507 37.558 39.742Q37.474 39.8332 37.3843 39.9189Q37.2947 40.0046 37.1998 40.0845Q37.1049 40.1643 37.0051 40.2379Q36.9053 40.3116 36.801 40.3787Q36.6967 40.4459 36.5884 40.5063Q36.4801 40.5667 36.3681 40.6201Q36.2562 40.6735 36.141 40.7197Q36.0259 40.7658 35.9081 40.8046Q35.7903 40.8434 35.6703 40.8746Q35.5502 40.9058 35.4284 40.9293Q35.3067 40.9528 35.1836 40.9685Q35.0606 40.9842 34.9368 40.9921Q34.8131 41 34.689 41L6.31096 41Q6.18694 41 6.06316 40.9921Q5.93938 40.9842 5.81635 40.9685Q5.69333 40.9528 5.57155 40.9293Q5.44977 40.9058 5.32973 40.8746Q5.20969 40.8434 5.09188 40.8046Q4.97406 40.7658 4.85895 40.7197Q4.74384 40.6735 4.63189 40.6201Q4.51994 40.5667 4.41161 40.5063Q4.30328 40.4459 4.19901 40.3787Q4.09474 40.3116 3.99494 40.2379Q3.89515 40.1643 3.80023 40.0845Q3.70532 40.0046 3.61567 39.9189Q3.52602 39.8332 3.44199 39.742Q3.35797 39.6507 3.27991 39.5544Q3.20185 39.458 3.13008 39.3568Q3.0583 39.2557 2.99309 39.1502Q2.92789 39.0447 2.86952 38.9352Q2.81115 38.8258 2.75985 38.7129Q2.70855 38.6 2.66453 38.484Q2.6205 38.368 2.58394 38.2495Q2.54737 38.131 2.51841 38.0104Q2.48945 37.8898 2.4682 37.7676Q2.44696 37.6454 2.43353 37.5221Q2.42009 37.3988 2.41452 37.2749Q2.40894 37.151 2.41125 37.027Q2.41356 36.903 2.42374 36.7794Q2.43392 36.6558 2.45194 36.5331Q2.46995 36.4104 2.49573 36.289Q2.5215 36.1677 2.55493 36.0483Q2.58836 35.9288 2.62932 35.8118Q2.67027 35.6947 2.71858 35.5805Q2.76688 35.4662 2.82235 35.3553L17.0114 6.97723Q17.0718 6.85648 17.1403 6.7402Q17.2089 6.62391 17.2854 6.51265Q17.3618 6.40138 17.4458 6.29567Q17.5298 6.18995 17.6208 6.0903Q17.7119 5.99065 17.8096 5.89753Q17.9074 5.80441 18.0113 5.71827Q18.1153 5.63213 18.2249 5.55339Q18.3346 5.47464 18.4494 5.40367Q18.5643 5.33269 18.6838 5.26983Q18.8032 5.20697 18.9268 5.15251Q19.0503 5.09806 19.1773 5.05228Q19.3043 5.00649 19.4342 4.9696Q19.564 4.93271 19.6961 4.90489Q19.8282 4.87706 19.9619 4.85844Q20.0956 4.83982 20.2303 4.83048Q20.365 4.82115 20.5 4.82115Q20.635 4.82115 20.7697 4.83048Q20.9044 4.83982 21.0381 4.85844Q21.1718 4.87706 21.3039 4.90489Q21.436 4.93271 21.5658 4.9696Q21.6957 5.00649 21.8227 5.05228Q21.9497 5.09806 22.0732 5.15251Q22.1968 5.20697 22.3162 5.26983Q22.4357 5.33269 22.5506 5.40367Q22.6654 5.47464 22.7751 5.55339Q22.8847 5.63213 22.9887 5.71827Q23.0926 5.80441 23.1904 5.89753Q23.2881 5.99065 23.3792 6.0903Q23.4702 6.18995 23.5542 6.29567Q23.6382 6.40138 23.7146 6.51265Q23.7911 6.62391 23.8597 6.7402Q23.9282 6.85648 23.9886 6.97723Z" fill="#bebebe" fill-rule="evenodd" transform="translate(4 15)" />
        <path d="M0 9.5C0 4.25329 4.2533 0 9.5 0C14.7467 0 19 4.25329 19 9.5C19 14.7467 14.7467 19 9.5 19C4.2533 19 0 14.7467 0 9.5Z" fill="#F8E42F" fill-rule="evenodd" transform="translate(32 13)" />
        <path d="M23.4096 6.1372L36.7808 30.2054Q36.8423 30.3162 36.8965 30.4306Q36.9507 30.5451 36.9974 30.6629Q37.044 30.7807 37.083 30.9012Q37.1219 31.0218 37.1529 31.1446Q37.1839 31.2674 37.2069 31.392Q37.2299 31.5166 37.2447 31.6424Q37.2596 31.7682 37.2662 31.8947Q37.2729 32.0212 37.2713 32.1479Q37.2698 32.2745 37.26 32.4008Q37.2502 32.5271 37.2322 32.6525Q37.2143 32.7779 37.1882 32.9019Q37.1622 33.0259 37.1281 33.1479Q37.0941 33.2699 37.0522 33.3895Q37.0103 33.509 36.9607 33.6256Q36.9112 33.7422 36.8541 33.8553Q36.7971 33.9684 36.7329 34.0776Q36.6686 34.1868 36.5974 34.2916Q36.5262 34.3964 36.4484 34.4963Q36.3706 34.5962 36.2864 34.6909Q36.2022 34.7856 36.1121 34.8746Q36.022 34.9636 35.9263 35.0466Q35.8306 35.1296 35.7297 35.2062Q35.6288 35.2828 35.5231 35.3527Q35.4174 35.4226 35.3075 35.4855Q35.1975 35.5483 35.0837 35.604Q34.9699 35.6596 34.8527 35.7077Q34.7355 35.7558 34.6154 35.7962Q34.4954 35.8366 34.373 35.8692Q34.2505 35.9017 34.1262 35.9262Q34.002 35.9508 33.8763 35.9672Q33.7507 35.9836 33.6243 35.9918Q33.4979 36 33.3712 36L6.62877 36Q6.50209 36 6.37568 35.9918Q6.24927 35.9836 6.12365 35.9672Q5.99804 35.9508 5.87376 35.9262Q5.74948 35.9017 5.62705 35.8692Q5.50462 35.8366 5.38456 35.7962Q5.2645 35.7558 5.14731 35.7077Q5.03012 35.6596 4.91631 35.604Q4.80249 35.5483 4.69252 35.4855Q4.58256 35.4226 4.4769 35.3527Q4.37125 35.2828 4.27035 35.2062Q4.16945 35.1296 4.07374 35.0466Q3.97802 34.9636 3.8879 34.8746Q3.79777 34.7856 3.71361 34.6909Q3.62944 34.5962 3.5516 34.4963Q3.47376 34.3964 3.40257 34.2916Q3.33138 34.1868 3.26714 34.0776Q3.20289 33.9684 3.14587 33.8553Q3.08885 33.7422 3.03929 33.6256Q2.98973 33.509 2.94783 33.3895Q2.90594 33.2699 2.87189 33.1479Q2.83785 33.0259 2.81179 32.9019Q2.78573 32.7779 2.76777 32.6525Q2.74981 32.5271 2.74003 32.4008Q2.73025 32.2745 2.72868 32.1479Q2.72711 32.0212 2.73377 31.8947Q2.74042 31.7682 2.75527 31.6424Q2.77012 31.5166 2.7931 31.392Q2.81608 31.2674 2.8471 31.1446Q2.87812 31.0218 2.91704 30.9012Q2.95596 30.7807 3.00262 30.6629Q3.04928 30.5451 3.10349 30.4306Q3.15769 30.3162 3.21922 30.2054L16.5904 6.1372Q16.6534 6.02382 16.7238 5.91488Q16.7942 5.80594 16.8717 5.70191Q16.9491 5.59789 17.0333 5.49923Q17.1175 5.40058 17.2081 5.30774Q17.2987 5.21491 17.3952 5.12829Q17.4917 5.04167 17.5938 4.96166Q17.6959 4.88165 17.8031 4.80859Q17.9102 4.73554 18.022 4.66976Q18.1338 4.60399 18.2497 4.54579Q18.3656 4.48758 18.4851 4.43721Q18.6046 4.38684 18.7272 4.34451Q18.8498 4.30219 18.975 4.2681Q19.1001 4.23402 19.2272 4.20832Q19.3544 4.18263 19.4829 4.16543Q19.6115 4.14824 19.7409 4.13962Q19.8703 4.13101 20 4.13101Q20.1297 4.13101 20.2591 4.13962Q20.3885 4.14824 20.5171 4.16543Q20.6456 4.18263 20.7728 4.20832Q20.8999 4.23402 21.025 4.2681Q21.1502 4.30219 21.2728 4.34451Q21.3954 4.38684 21.5149 4.43721Q21.6344 4.48758 21.7503 4.54579Q21.8662 4.60399 21.978 4.66976Q22.0898 4.73554 22.1969 4.80859Q22.3041 4.88165 22.4062 4.96166Q22.5083 5.04167 22.6048 5.12829Q22.7013 5.21491 22.7919 5.30774Q22.8825 5.40058 22.9667 5.49923Q23.0509 5.59788 23.1283 5.70191Q23.2058 5.80594 23.2762 5.91488Q23.3466 6.02382 23.4096 6.1372Z" fill="#AFAFAF" fill-rule="evenodd" filter="url(#filter_1)" transform="translate(26 20)" />
    </g>
</svg>