<?xml version="1.0" encoding="utf-8"?>
<svg width="512" height="512" viewBox="0 0 40 40" fill="none" xmlns="http://www.w3.org/2000/svg">
    <g>
        <path d="M30 0C35.5236 0 40 4.4764 40 10L40 30C40 35.5236 35.5236 40 30 40L10 40C4.4764 40 0 35.5236 0 30L0 10C0 4.4764 4.4764 0 10 0L30 0Z" fill="#0D273E" />
        <path d="M16.2861 8.86111L20.4575 4.85186C20.4844 4.82628 20.5047 4.79648 20.5193 4.7625C20.5336 4.72851 20.5409 4.69305 20.5409 4.65612C20.5409 4.61919 20.5336 4.58374 20.5193 4.54975C20.5047 4.51578 20.4844 4.48599 20.4575 4.46039L16.8001 0.94487Q16.7534 0.899961 16.693 0.87629Q16.6327 0.852618 16.5679 0.853769L15.8494 0.866529L15.8494 0.866699L7.42103 0.866699C7.42103 0.866699 5.25122 1.13471 3.56392 3.15243C2.24583 4.72856 2.11529 6.50103 2.12128 7.20132C2.11686 7.34271 2.12126 7.49289 2.13519 7.65233C2.50569 11.894 6.83067 13.4012 6.83067 13.4012L14.7066 16.3664L14.7065 16.3666C16.9122 16.9528 16.8693 17.961 16.8518 18.3741C16.8508 18.3974 16.8499 18.4188 16.8494 18.4381C16.8351 19.0941 16.3423 19.8208 14.9922 19.7952C13.0209 19.7579 12.4923 20.1524 12.4923 20.1524C9.92088 21.581 10.8791 21.189 6.70655 24.3667C2.53412 27.5444 0 26.9802 0 26.9802C0 26.9802 0.752986 27.8052 3.56377 27.7953C6.75656 27.7841 8.84953 26.3666 8.84953 26.3666C9.53643 25.9202 11.8637 24.9057 13.7779 24.7238L15.916 24.7238C17.0132 24.3557 19.9303 23.7028 21.0637 20.5809C21.0637 20.5809 22.5001 17.486 20.5636 14.5809C20.5636 14.5809 20.2299 14.0032 18.7779 13.0809C17.3376 12.1659 16.4352 11.801 16.421 11.7952L16.421 11.7951L8.57129 8.86666L7.92109 8.58094C7.92109 8.58094 6.98983 8.07226 7.06402 7.11831C7.13734 6.17459 8.11406 5.73324 8.13497 5.7239L15.8354 5.7239C15.8307 7.33067 15.8267 8.66536 15.8267 8.66536L15.8267 8.66753C15.8271 8.72154 15.8425 8.77103 15.8722 8.81599C15.9021 8.86095 15.9424 8.89398 15.9921 8.91514C16.0414 8.93646 16.0937 8.94219 16.1473 8.93239C16.2004 8.92256 16.2472 8.8988 16.2861 8.86111Z" fill="#4AB29B" fill-rule="evenodd" transform="translate(9.213 5.683)" />
        <path d="M4.14289 0L1.90039 0Q1.80703 0 1.71412 0.0091509Q1.62121 0.0183018 1.52964 0.0365155Q1.43808 0.0547291 1.34874 0.0818302Q1.2594 0.108931 1.17314 0.144659Q1.08689 0.180386 1.00455 0.224396Q0.922216 0.268405 0.84459 0.320274Q0.766964 0.372142 0.694795 0.431369Q0.622627 0.490596 0.556611 0.556611Q0.490596 0.622627 0.431369 0.694795Q0.372142 0.766964 0.320274 0.84459Q0.268405 0.922216 0.224396 1.00455Q0.180386 1.08689 0.144659 1.17314Q0.108931 1.2594 0.0818302 1.34874Q0.0547291 1.43808 0.0365155 1.52964Q0.0183018 1.62121 0.0091509 1.71412Q0 1.80703 0 1.90039L0 9.81391Q0 9.90727 0.0091509 10.0002Q0.0183018 10.0931 0.0365155 10.1847Q0.0547291 10.2762 0.0818302 10.3656Q0.108931 10.4549 0.144659 10.5412Q0.180386 10.6274 0.224396 10.7097Q0.268405 10.7921 0.320274 10.8697Q0.372142 10.9473 0.431369 11.0195Q0.490596 11.0917 0.556611 11.1577Q0.622627 11.2237 0.694795 11.2829Q0.766964 11.3422 0.84459 11.394Q0.922216 11.4459 1.00455 11.4899Q1.08689 11.5339 1.17314 11.5696Q1.2594 11.6054 1.34874 11.6325Q1.43808 11.6596 1.52964 11.6778Q1.62121 11.696 1.71412 11.7051Q1.80703 11.7143 1.90039 11.7143L2.2425 11.7143Q2.33586 11.7143 2.42877 11.7051Q2.52168 11.696 2.61325 11.6778Q2.70482 11.6596 2.79416 11.6325Q2.8835 11.6054 2.96975 11.5696Q3.056 11.5339 3.13834 11.4899Q3.22068 11.4459 3.2983 11.394Q3.37593 11.3422 3.4481 11.2829Q3.52027 11.2237 3.58628 11.1577Q3.6523 11.0917 3.71152 11.0195Q3.77075 10.9473 3.82262 10.8697Q3.87449 10.7921 3.9185 10.7097Q3.96251 10.6274 3.99823 10.5412Q4.03396 10.4549 4.06106 10.3656Q4.08816 10.2762 4.10638 10.1847Q4.12459 10.0931 4.13374 10.0002Q4.14289 9.90727 4.14289 9.81391L4.14289 0L4.14289 0Z" fill="#4AB29B" fill-rule="evenodd" transform="translate(7.206 18.979)" />
        <path d="M0.271487 0L2.30697 0Q2.39716 0 2.48692 0.00884054Q2.57668 0.0176811 2.66514 0.035277Q2.7536 0.052873 2.83991 0.0790548Q2.92622 0.105237 3.00955 0.139752Q3.09288 0.174268 3.17242 0.216785Q3.25197 0.259302 3.32696 0.309411Q3.40195 0.35952 3.47167 0.416739Q3.5414 0.473957 3.60517 0.537734Q3.66895 0.60151 3.72617 0.671231Q3.78339 0.740952 3.83349 0.815945Q3.8836 0.890939 3.92612 0.970482Q3.96864 1.05003 4.00315 1.13335Q4.03767 1.21668 4.06385 1.30299Q4.09003 1.3893 4.10763 1.47776Q4.12523 1.56622 4.13407 1.65598Q4.14291 1.74574 4.14291 1.83594L4.14291 3.0391Q4.14291 3.26579 4.08959 3.48611Q4.03627 3.70643 3.93262 3.90803Q3.82897 4.10963 3.68082 4.28119Q3.53266 4.45275 3.3483 4.58465L0.667327 6.50281Q0.571435 6.57141 0.453527 6.57141L0.321475 6.57141C0.293868 6.57141 0.248937 6.57197 0.221735 6.56725C0.167794 6.55789 0.120387 6.53278 0.0795126 6.4919C0.0547438 6.46712 0.0357609 6.43996 0.0225658 6.41039C-0.00300217 6.35311 0 6.24908 0 6.18634L0 0.385071C0 0.322338 -0.00300312 0.218309 0.0225601 0.161022C0.0357561 0.131451 0.0547409 0.104279 0.0795126 0.0795021C0.132518 0.0264988 0.196509 0 0.271487 0L0.271487 0Z" fill="#4AB29B" fill-rule="evenodd" transform="translate(12.777 22.979)" />
    </g>
</svg>