<svg xmlns="http://www.w3.org/2000/svg" width="512" height="512" fill="currentColor" style="shape-rendering:geometricPrecision;text-rendering:geometricPrecision;image-rendering:optimizeQuality;fill-rule:evenodd;clip-rule:evenodd;opacity:1">
    <path d="M138.5-.5h234q11.472 4.225 15.5 16a1128 1128 0 0 1 1 93q-3.156 13.953-16.5 8.5-4.021-3.29-4.5-8.5-.75-43.997-.5-88h-74q.685 25.605-1.5 51-3.682 6.975-11.5 8.5a625 625 0 0 1-50 0q-9.638-2.14-12.5-11.5a1152 1152 0 0 1-.5-48h-74v225h224q-.25-23.505.5-47 4.364-13.755 17.5-7 3.496 3.176 3.5 8 .75 22.995.5 46 53.002-.25 106 .5 11.776 4.028 16 15.5v234q-4.5 11.5-16 16h-480Q4 507-.5 495.5v-234q4.225-11.472 16-15.5 52.998-.75 106-.5-.25-111.5.5-223 .947-16.94 16.5-23m100 21h34v39h-34zm-215 245h71q-.25 23.505.5 47 2.75 8.75 11.5 11.5 26 1 52 0 8.75-2.75 11.5-11.5.75-23.495.5-47h74v225h-224v-224q1.937.356 3-1m92 0h34v38h-34zm151 0h74q-.25 23.505.5 47 2.75 8.75 11.5 11.5 26 1 52 0 8.75-2.75 11.5-11.5.75-23.495.5-47 37.049-.457 74 1v224h-224zm95 0h34v38h-34z"/>
    <path d="M374.5 143.5q16.479-1.27 13.5 15-4.112 7.378-12.5 5.5-7.196-2.368-8-10 1.096-6.968 7-10.5M183.5 192.5q24.505-.25 49 .5 9.577 5.226 5.5 15.5-2.456 3.465-6.5 4.5a552 552 0 0 1-47 0q-12.052-5.662-5.5-17.5a29 29 0 0 0 4.5-3M59.5 438.5q25.005-.25 50 .5 10.479 5.943 4.5 16.5-1.978 2.98-5.5 3.5a552 552 0 0 1-47 0q-12.052-5.662-5.5-17.5 2.278-.995 3.5-3M401.5 438.5q25.005-.25 50 .5 8.84 5.732 4.5 15.5-2.456 3.465-6.5 4.5a552 552 0 0 1-47 0q-10.825-4.458-6.5-15.5 2.109-3.365 5.5-5"/>
</svg>