<?xml version="1.0" encoding="UTF-8"?>
<!DOCTYPE svg>
<svg xmlns="http://www.w3.org/2000/svg" version="1.1" width="512px" height="512px" style="shape-rendering:geometricPrecision; text-rendering:geometricPrecision; image-rendering:optimizeQuality; fill-rule:evenodd; clip-rule:evenodd"><g><path d="M 368.5,-0.5 C 378.167,-0.5 387.833,-0.5 397.5,-0.5C 441.883,7.37498 471.383,32.7083 486,75.5C 498.012,128.945 481.178,170.445 435.5,200C 392.31,220.904 351.644,216.904 313.5,188C 276.513,152.541 267.013,110.708 285,62.5C 302.191,27.3283 330.024,6.32833 368.5,-0.5 Z M 382.5,31.5 C 421.593,34.2913 446.093,54.6246 456,92.5C 460.186,135.303 442.019,163.803 401.5,178C 362.258,184.795 333.424,170.628 315,135.5C 302.625,100.493 310.458,70.9934 338.5,47C 351.766,37.5244 366.432,32.3578 382.5,31.5 Z"/></g><g><path d="M 246.5,511.5 C 237.833,511.5 229.167,511.5 220.5,511.5C 185.979,503.481 163.979,482.315 154.5,448C 119.5,447.667 84.5,447.333 49.5,447C 27.4132,439.881 17.9132,424.714 21,401.5C 22.1087,397.281 23.7754,393.281 26,389.5C 32,382.167 38.6667,375.5 46,369.5C 70.5892,341.966 83.2559,309.632 84,272.5C 84.3333,246.833 84.6667,221.167 85,195.5C 93.3593,139.243 123.193,99.0762 174.5,75C 197.564,65.2764 221.564,61.6097 246.5,64C 256.589,68.347 260.089,75.847 257,86.5C 251.937,95.2494 244.437,98.2494 234.5,95.5C 182.571,98.3032 146.071,123.303 125,170.5C 119.766,184.005 117.099,198.005 117,212.5C 116.667,238.833 116.333,265.167 116,291.5C 110.002,338.171 89.3354,376.838 54,407.5C 52.729,411.166 53.8956,413.666 57.5,415C 175.889,415.994 294.223,415.661 412.5,414C 414.673,412.135 415.007,409.969 413.5,407.5C 365.667,364.204 344.834,310.204 351,245.5C 354.251,235.618 361.085,231.452 371.5,233C 377.333,234.833 381.167,238.667 383,244.5C 379.201,285.304 388.534,322.637 411,356.5C 419.297,367.131 428.63,376.798 439,385.5C 449.887,401.26 450.22,417.26 440,433.5C 434.357,440.406 427.19,444.906 418.5,447C 383.168,447.5 347.835,447.667 312.5,447.5C 303.905,482.763 281.905,504.097 246.5,511.5 Z M 189.5,447.5 C 219.169,447.333 248.835,447.5 278.5,448C 266.551,472.641 247.218,482.308 220.5,477C 205.415,472.08 195.082,462.247 189.5,447.5 Z"/></g></svg>
