<?xml version="1.0" encoding="UTF-8"?>
<!DOCTYPE svg>
<svg xmlns="http://www.w3.org/2000/svg" version="1.1" width="352px" height="354px" style="shape-rendering:geometricPrecision; text-rendering:geometricPrecision; image-rendering:optimizeQuality; fill-rule:evenodd; clip-rule:evenodd" fill="#000" stroke="#000">
<g><path d="M 207.5,20.5 C 207.5,21.5 207.5,22.5 207.5,23.5C 214.107,23.7723 220.441,25.1056 226.5,27.5C 227.554,27.3201 228.554,26.9867 229.5,26.5C 237.586,29.7077 245.586,33.2077 253.5,37C 252.331,39.0065 251.665,41.1732 251.5,43.5C 250.5,43.5 249.5,43.5 248.5,43.5C 247.482,48.7118 245.649,54.0451 243,59.5C 238.819,65.6982 235.319,72.1982 232.5,79C 236.37,80.3679 240.37,81.5346 244.5,82.5C 247.44,81.1971 249.773,81.6971 251.5,84C 264.021,85.5509 275.021,89.3842 284.5,95.5C 285.522,95.1445 286.189,94.4778 286.5,93.5C 287.167,93.5 287.5,93.8333 287.5,94.5C 287.5,95.5 287.5,96.5 287.5,97.5C 288.873,97.3433 290.207,97.51 291.5,98C 291.167,98.3333 290.833,98.6667 290.5,99C 292.953,99.7267 295.286,100.727 297.5,102C 297.167,102.333 296.833,102.667 296.5,103C 297.833,103.333 299.167,103.667 300.5,104C 306.167,107.944 311.834,111.778 317.5,115.5C 315.673,118.237 313.506,120.904 311,123.5C 310.667,123.167 310.333,122.833 310,122.5C 307.312,125.354 304.812,128.354 302.5,131.5C 300.905,132.434 299.239,132.434 297.5,131.5C 295.717,128.864 293.717,126.198 291.5,123.5C 287.902,120.91 283.902,119.243 279.5,118.5C 276.577,114.085 272.577,112.418 267.5,113.5C 291.549,134.905 308.049,160.571 317,190.5C 322.733,215.133 321.567,239.466 313.5,263.5C 309.791,269.233 306.291,275.233 303,281.5C 299.404,284.718 295.904,288.051 292.5,291.5C 285.274,294.724 278.274,298.391 271.5,302.5C 269.577,303.308 267.577,303.808 265.5,304C 265.833,304.333 266.167,304.667 266.5,305C 264.167,305.333 261.833,305.667 259.5,306C 259.833,306.333 260.167,306.667 260.5,307C 250.149,309.23 239.483,311.063 228.5,312.5C 211.698,313.279 195.032,314.279 178.5,315.5C 163.586,314.813 148.753,313.813 134,312.5C 133.107,313.081 132.107,313.415 131,313.5C 124.388,311.969 117.722,310.636 111,309.5C 109.014,309.569 107.514,310.235 106.5,311.5C 105.833,311.167 105.167,310.833 104.5,310.5C 104.414,309.504 104.748,308.671 105.5,308C 99.1905,306.227 92.8571,304.56 86.5,303C 86.8333,302.667 87.1667,302.333 87.5,302C 74.268,298.111 63.1013,290.944 54,280.5C 53.3828,279.551 53.5494,278.718 54.5,278C 52.9238,277.56 51.5904,276.727 50.5,275.5C 49.7027,271.296 47.8694,267.629 45,264.5C 43.3092,258.879 41.4758,252.546 39.5,245.5C 38.8617,237.282 37.8617,229.116 36.5,221C 37.8157,216.584 38.4823,212.084 38.5,207.5C 38.496,201.02 39.496,194.687 41.5,188.5C 44.9963,178.665 48.6629,168.999 52.5,159.5C 56.0939,153.578 59.4272,148.245 62.5,143.5C 64.1128,142.573 65.7795,141.739 67.5,141C 66.8333,140.667 66.1667,140.333 65.5,140C 67.1769,138.005 68.6769,135.839 70,133.5C 78.3275,125.466 86.1608,117.133 93.5,108.5C 99.1056,106.017 104.106,102.517 108.5,98C 114.758,93.9554 120.925,89.7888 127,85.5C 125.986,81.6066 124.819,77.6066 123.5,73.5C 116.48,61.5948 110.147,49.4281 104.5,37C 111.753,32.7512 119.42,29.5845 127.5,27.5C 129.144,27.2865 130.644,27.6198 132,28.5C 134.295,26.2568 137.129,24.9235 140.5,24.5C 149.037,22.9309 157.537,21.2642 166,19.5C 167.107,19.5852 168.107,19.9186 169,20.5C 169.804,19.1955 170.971,18.5288 172.5,18.5C 181.994,18.9338 190.661,19.9338 198.5,21.5C 201.533,21.331 204.533,20.9977 207.5,20.5 Z M 206.5,75.5 C 189.008,76.4967 171.341,76.8301 153.5,76.5C 151.926,76.0629 150.759,75.0629 150,73.5C 147.233,66.8627 143.9,60.5293 140,54.5C 139.212,52.8353 138.878,51.1686 139,49.5C 165.929,41.3555 192.762,41.5222 219.5,50C 215.062,58.5037 210.729,67.0037 206.5,75.5 Z M 147.5,103.5 C 169.167,103.5 190.833,103.5 212.5,103.5C 240.271,119.434 263.104,140.767 281,167.5C 293.432,188.056 298.598,210.389 296.5,234.5C 295.662,234.842 295.328,235.508 295.5,236.5C 293.315,259.882 280.981,274.882 258.5,281.5C 257.833,281.5 257.5,281.833 257.5,282.5C 244.034,285.892 230.367,288.058 216.5,289C 186.521,290.452 156.521,290.118 126.5,288C 112.182,286.227 98.5149,282.227 85.5,276C 77.9267,271.261 71.9267,265.095 67.5,257.5C 60.0992,235.362 59.5992,213.029 66,190.5C 69.6477,181.208 73.8144,172.208 78.5,163.5C 95.3359,140.661 115.669,121.661 139.5,106.5C 142.167,105.5 144.833,104.5 147.5,103.5 Z"/></g>
<g><path d="M 207.5,20.5 C 204.533,20.9977 201.533,21.331 198.5,21.5C 190.661,19.9338 181.994,18.9338 172.5,18.5C 170.971,18.5288 169.804,19.1955 169,20.5C 168.107,19.9186 167.107,19.5852 166,19.5C 157.537,21.2642 149.037,22.9309 140.5,24.5C 137.129,24.9235 134.295,26.2568 132,28.5C 130.644,27.6198 129.144,27.2865 127.5,27.5C 129.531,27.0276 131.198,26.0276 132.5,24.5C 157.186,16.2535 182.186,14.9202 207.5,20.5 Z"/></g>
<g><path d="M 207.5,20.5 C 224.125,22.986 239.958,27.986 255,35.5C 249.882,48.7465 243.882,61.7465 237,74.5C 236.316,75.7839 236.483,76.9505 237.5,78C 254.594,80.8652 270.927,86.0318 286.5,93.5C 286.189,94.4778 285.522,95.1445 284.5,95.5C 275.021,89.3842 264.021,85.5509 251.5,84C 249.773,81.6971 247.44,81.1971 244.5,82.5C 240.37,81.5346 236.37,80.3679 232.5,79C 235.319,72.1982 238.819,65.6982 243,59.5C 245.649,54.0451 247.482,48.7118 248.5,43.5C 249.5,43.5 250.5,43.5 251.5,43.5C 251.665,41.1732 252.331,39.0065 253.5,37C 245.586,33.2077 237.586,29.7077 229.5,26.5C 228.554,26.9867 227.554,27.3201 226.5,27.5C 220.441,25.1056 214.107,23.7723 207.5,23.5C 207.5,22.5 207.5,21.5 207.5,20.5 Z"/></g>
<g><path d="M 287.5,94.5 C 298.937,99.543 308.937,106.543 317.5,115.5C 311.834,111.778 306.167,107.944 300.5,104C 299.167,103.667 297.833,103.333 296.5,103C 296.833,102.667 297.167,102.333 297.5,102C 295.286,100.727 292.953,99.7267 290.5,99C 290.833,98.6667 291.167,98.3333 291.5,98C 290.207,97.51 288.873,97.3433 287.5,97.5C 287.5,96.5 287.5,95.5 287.5,94.5 Z"/></g>
<g><path d="M 212.5,102.5 C 212.5,102.833 212.5,103.167 212.5,103.5C 190.833,103.5 169.167,103.5 147.5,103.5C 157.645,102.168 168.145,101.501 179,101.5C 190.211,101.521 201.377,101.855 212.5,102.5 Z"/></g>
<g><path d="M 139.5,106.5 C 115.669,121.661 95.3359,140.661 78.5,163.5C 78.8567,161.411 79.5233,159.411 80.5,157.5C 93.1152,142.71 106.782,129.044 121.5,116.5C 125.91,114.258 129.91,111.425 133.5,108C 135.518,107.495 137.518,106.995 139.5,106.5 Z"/></g>
<g><path d="M 279.5,118.5 C 283.902,119.243 287.902,120.91 291.5,123.5C 293.717,126.198 295.717,128.864 297.5,131.5C 291.495,127.16 285.495,122.826 279.5,118.5 Z"/></g>
<g><path d="M 189.5,125.5 C 189.173,130.544 189.506,135.544 190.5,140.5C 204.586,145.938 212.253,156.271 213.5,171.5C 206.189,172.665 198.856,172.831 191.5,172C 190.989,164.156 186.822,160.656 179,161.5C 170.352,162.11 166.352,166.777 167,175.5C 167.465,176.931 168.299,178.097 169.5,179C 181.116,185.143 192.45,191.81 203.5,199C 207.683,202.559 211.016,206.725 213.5,211.5C 212.998,220.931 211.664,230.264 209.5,239.5C 205.738,243.083 201.738,246.583 197.5,250C 195.073,251.591 192.407,252.425 189.5,252.5C 189.5,257.5 189.5,262.5 189.5,267.5C 182.167,267.5 174.833,267.5 167.5,267.5C 167.666,262.821 167.499,258.155 167,253.5C 164.993,252.331 162.827,251.665 160.5,251.5C 160.5,250.5 160.5,249.5 160.5,248.5C 158.516,248.617 156.85,247.95 155.5,246.5C 148.712,239.598 145.378,231.265 145.5,221.5C 152.2,221.17 158.866,221.503 165.5,222.5C 167.973,225.619 169.973,228.952 171.5,232.5C 174.719,232.157 176.886,232.824 178,234.5C 184.095,232.747 188.762,229.081 192,223.5C 192.798,221.741 192.631,220.074 191.5,218.5C 189.129,215.794 186.463,213.461 183.5,211.5C 174.595,206.548 165.595,201.881 156.5,197.5C 143.801,186.72 140.468,173.387 146.5,157.5C 147.5,157.5 148.5,157.5 149.5,157.5C 151.719,148.038 157.719,142.704 167.5,141.5C 167.5,136.167 167.5,130.833 167.5,125.5C 174.833,125.5 182.167,125.5 189.5,125.5 Z"/></g>
<g><path d="M 212.5,102.5 C 216.149,103.74 219.649,105.407 223,107.5C 236.286,117.124 248.953,127.457 261,138.5C 266.966,144.352 272.466,150.686 277.5,157.5C 282.265,165.365 286.765,173.365 291,181.5C 292.355,185.409 293.355,189.409 294,193.5C 294.333,193.167 294.667,192.833 295,192.5C 296.949,201.523 298.449,210.523 299.5,219.5C 299.333,222.167 299.167,224.833 299,227.5C 298.844,230.191 298.011,232.524 296.5,234.5C 298.598,210.389 293.432,188.056 281,167.5C 263.104,140.767 240.271,119.434 212.5,103.5C 212.5,103.167 212.5,102.833 212.5,102.5 Z"/></g>
<g><path d="M 189.5,125.5 C 190.324,129.312 190.824,133.312 191,137.5C 191.383,138.056 191.883,138.389 192.5,138.5C 207.453,145.413 215.12,157.08 215.5,173.5C 207.16,173.666 198.827,173.5 190.5,173C 187.18,162.834 180.847,160.168 171.5,165C 166.997,170.474 167.664,175.141 173.5,179C 184.325,184.243 194.658,190.243 204.5,197C 208.983,200.968 211.983,205.802 213.5,211.5C 211.016,206.725 207.683,202.559 203.5,199C 192.45,191.81 181.116,185.143 169.5,179C 168.299,178.097 167.465,176.931 167,175.5C 166.352,166.777 170.352,162.11 179,161.5C 186.822,160.656 190.989,164.156 191.5,172C 198.856,172.831 206.189,172.665 213.5,171.5C 212.253,156.271 204.586,145.938 190.5,140.5C 189.506,135.544 189.173,130.544 189.5,125.5 Z"/></g>
<g><path d="M 192.5,138.5 C 191.883,138.389 191.383,138.056 191,137.5C 190.824,133.312 190.324,129.312 189.5,125.5C 182.167,125.5 174.833,125.5 167.5,125.5C 167.5,130.833 167.5,136.167 167.5,141.5C 157.719,142.704 151.719,148.038 149.5,157.5C 148.5,157.5 147.5,157.5 146.5,157.5C 140.468,173.387 143.801,186.72 156.5,197.5C 156.5,198.167 156.167,198.5 155.5,198.5C 139.949,185.46 137.449,170.126 148,152.5C 152.744,146.76 158.41,142.094 165,138.5C 165.182,134.082 165.348,129.749 165.5,125.5C 174.147,124.335 182.814,124.168 191.5,125C 192.467,129.401 192.8,133.901 192.5,138.5 Z"/></g>
<g><path d="M 93.5,108.5 C 86.1608,117.133 78.3275,125.466 70,133.5C 68.6769,135.839 67.1769,138.005 65.5,140C 66.1667,140.333 66.8333,140.667 67.5,141C 65.7795,141.739 64.1128,142.573 62.5,143.5C 59.4272,148.245 56.0939,153.578 52.5,159.5C 48.6629,168.999 44.9963,178.665 41.5,188.5C 39.496,194.687 38.496,201.02 38.5,207.5C 37.5,207.5 36.5,207.5 35.5,207.5C 41.7233,166.707 61.0566,133.707 93.5,108.5 Z"/></g>
<g><path d="M 213.5,211.5 C 214.268,212.263 214.768,213.263 215,214.5C 215.667,219.167 215.667,223.833 215,228.5C 214.19,232.787 212.357,236.454 209.5,239.5C 211.664,230.264 212.998,220.931 213.5,211.5 Z"/></g>
<g><path d="M 156.5,197.5 C 165.595,201.881 174.595,206.548 183.5,211.5C 186.463,213.461 189.129,215.794 191.5,218.5C 192.631,220.074 192.798,221.741 192,223.5C 188.762,229.081 184.095,232.747 178,234.5C 176.886,232.824 174.719,232.157 171.5,232.5C 169.973,228.952 167.973,225.619 165.5,222.5C 158.866,221.503 152.2,221.17 145.5,221.5C 145.378,231.265 148.712,239.598 155.5,246.5C 156.85,247.95 158.516,248.617 160.5,248.5C 160.5,249.5 160.5,250.5 160.5,251.5C 148.199,244.909 142.033,234.575 142,220.5C 150.421,219.351 158.921,219.184 167.5,220C 169.955,230.471 175.955,233.471 185.5,229C 191.431,223.006 190.764,218.006 183.5,214C 173.622,209.566 164.288,204.4 155.5,198.5C 156.167,198.5 156.5,198.167 156.5,197.5 Z"/></g>
<g><path d="M 78.5,163.5 C 73.8144,172.208 69.6477,181.208 66,190.5C 59.5992,213.029 60.0992,235.362 67.5,257.5C 66.609,256.89 65.609,256.557 64.5,256.5C 62.4972,248.824 60.6639,241.158 59,233.5C 57.9279,217.358 59.9279,201.692 65,186.5C 67.7566,182.983 69.4232,178.983 70,174.5C 72.2091,170.261 75.0425,166.594 78.5,163.5 Z"/></g>
<g><path d="M 209.5,239.5 C 206.116,246.712 200.616,251.712 193,254.5C 192.667,258.833 192.333,263.167 192,267.5C 191.5,268 191,268.5 190.5,269C 182.451,269.802 174.451,269.635 166.5,268.5C 165.672,264.204 165.172,259.871 165,255.5C 163.508,254.08 162.008,252.746 160.5,251.5C 162.827,251.665 164.993,252.331 167,253.5C 167.499,258.155 167.666,262.821 167.5,267.5C 174.833,267.5 182.167,267.5 189.5,267.5C 189.5,262.5 189.5,257.5 189.5,252.5C 192.407,252.425 195.073,251.591 197.5,250C 201.738,246.583 205.738,243.083 209.5,239.5 Z"/></g>
<g><path d="M 295.5,236.5 C 296.734,238.201 297.401,240.201 297.5,242.5C 294.557,257.926 286.557,269.759 273.5,278C 269.236,279.924 264.903,281.757 260.5,283.5C 259.287,283.253 258.62,282.586 258.5,281.5C 280.981,274.882 293.315,259.882 295.5,236.5 Z"/></g>
<g><path d="M 35.5,207.5 C 36.5,207.5 37.5,207.5 38.5,207.5C 38.4823,212.084 37.8157,216.584 36.5,221C 37.8617,229.116 38.8617,237.282 39.5,245.5C 41.4758,252.546 43.3092,258.879 45,264.5C 47.8694,267.629 49.7027,271.296 50.5,275.5C 51.5904,276.727 52.9238,277.56 54.5,278C 53.5494,278.718 53.3828,279.551 54,280.5C 63.1013,290.944 74.268,298.111 87.5,302C 87.1667,302.333 86.8333,302.667 86.5,303C 92.8571,304.56 99.1905,306.227 105.5,308C 104.748,308.671 104.414,309.504 104.5,310.5C 63.8813,302.718 41.048,278.385 36,237.5C 35.5002,227.506 35.3335,217.506 35.5,207.5 Z"/></g>
<g><path d="M 64.5,256.5 C 65.609,256.557 66.609,256.89 67.5,257.5C 71.9267,265.095 77.9267,271.261 85.5,276C 98.5149,282.227 112.182,286.227 126.5,288C 156.521,290.118 186.521,290.452 216.5,289C 230.367,288.058 244.034,285.892 257.5,282.5C 257.196,283.15 256.863,283.817 256.5,284.5C 247.112,287.79 237.445,289.623 227.5,290C 227.833,290.333 228.167,290.667 228.5,291C 211.857,292.265 195.19,293.098 178.5,293.5C 153.867,293.268 130.2,291.101 107.5,287C 102.083,284.738 96.4162,282.904 90.5,281.5C 85.3576,278.518 80.3576,275.351 75.5,272C 76.6537,271.086 76.487,270.253 75,269.5C 74.6667,269.833 74.3333,270.167 74,270.5C 71.37,265.388 68.2033,260.721 64.5,256.5 Z"/></g>
<g><path d="M 313.5,263.5 C 312.699,265.042 312.366,266.708 312.5,268.5C 304.624,284.207 292.624,295.707 276.5,303C 259.563,310.102 241.897,314.102 223.5,315C 184.355,317.874 145.355,316.708 106.5,311.5C 107.514,310.235 109.014,309.569 111,309.5C 117.722,310.636 124.388,311.969 131,313.5C 132.107,313.415 133.107,313.081 134,312.5C 148.753,313.813 163.586,314.813 178.5,315.5C 195.032,314.279 211.698,313.279 228.5,312.5C 239.483,311.063 250.149,309.23 260.5,307C 260.167,306.667 259.833,306.333 259.5,306C 261.833,305.667 264.167,305.333 266.5,305C 266.167,304.667 265.833,304.333 265.5,304C 267.577,303.808 269.577,303.308 271.5,302.5C 278.274,298.391 285.274,294.724 292.5,291.5C 295.904,288.051 299.404,284.718 303,281.5C 306.291,275.233 309.791,269.233 313.5,263.5 Z"/></g>
</svg>
